<?xml version="1.0" encoding="UTF-8" standalone="no"?>
<svg
   xmlns:dc="http://purl.org/dc/elements/1.1/"
   xmlns:cc="http://creativecommons.org/ns#"
   xmlns:rdf="http://www.w3.org/1999/02/22-rdf-syntax-ns#"
   xmlns:svg="http://www.w3.org/2000/svg"
   xmlns="http://www.w3.org/2000/svg"
   xmlns:xlink="http://www.w3.org/1999/xlink"
   xmlns:sodipodi="http://sodipodi.sourceforge.net/DTD/sodipodi-0.dtd"
   xmlns:inkscape="http://www.inkscape.org/namespaces/inkscape"
   sodipodi:docname="logo.svg"
   inkscape:version="1.0 (4035a4fb49, 2020-05-01)"
   id="svg8"
   version="1.1"
   viewBox="0 0 210 297"
   height="297mm"
   width="210mm">
  <defs
     id="defs2">
    <linearGradient
       id="linearGradient1139"
       inkscape:collect="always">
      <stop
         id="stop1135"
         offset="0"
         style="stop-color:#ff0000;stop-opacity:1;" />
      <stop
         id="stop1137"
         offset="1"
         style="stop-color:#ffff00;stop-opacity:1" />
    </linearGradient>
    <inkscape:perspective
       id="perspective852"
       inkscape:persp3d-origin="105 : 99 : 1"
       inkscape:vp_z="210 : 148.5 : 1"
       inkscape:vp_y="0 : 1000 : 0"
       inkscape:vp_x="0 : 148.5 : 1"
       sodipodi:type="inkscape:persp3d" />
    <linearGradient
       gradientUnits="userSpaceOnUse"
       y2="118.75994"
       x2="106.88763"
       y1="118.75994"
       x1="67.897147"
       id="linearGradient1141"
       xlink:href="#linearGradient1139"
       inkscape:collect="always" />
    <linearGradient
       gradientUnits="userSpaceOnUse"
       y2="485.83984"
       x2="237.57812"
       y1="484.79102"
       x1="361.07031"
       id="linearGradient1149"
       xlink:href="#linearGradient1139"
       inkscape:collect="always" />
  </defs>
  <sodipodi:namedview
     inkscape:window-maximized="1"
     inkscape:window-y="-8"
     inkscape:window-x="-8"
     inkscape:window-height="705"
     inkscape:window-width="1366"
     inkscape:bbox-nodes="false"
     inkscape:snap-global="true"
     inkscape:snap-bbox="true"
     inkscape:snap-midpoints="true"
     inkscape:snap-smooth-nodes="true"
     inkscape:snap-intersection-paths="true"
     inkscape:object-paths="true"
     inkscape:lockguides="true"
     showguides="false"
     showborder="false"
     showgrid="false"
     inkscape:document-rotation="0"
     inkscape:current-layer="layer1"
     inkscape:document-units="px"
     inkscape:cy="453.49507"
     inkscape:cx="358.83669"
     inkscape:zoom="1"
     inkscape:pageshadow="2"
     inkscape:pageopacity="0.0"
     borderopacity="1.0"
     bordercolor="#666666"
     pagecolor="#ffffff"
     id="base" />
  <metadata
     id="metadata5">
    <rdf:RDF>
      <cc:Work
         rdf:about="">
        <dc:format>image/svg+xml</dc:format>
        <dc:type
           rdf:resource="http://purl.org/dc/dcmitype/StillImage" />
        <dc:title></dc:title>
      </cc:Work>
    </rdf:RDF>
  </metadata>
  <g
     id="layer1"
     inkscape:groupmode="layer"
     inkscape:label="Layer 1">
    <path
       transform="scale(0.26458333)"
       d="M 319.45898 403.83984 A 81.999999 81.999999 0 0 0 237.57812 485.83984 A 81.999999 81.999999 0 0 0 319.57812 567.83984 A 81.999999 81.999999 0 0 0 401.57617 485.83984 A 81.999999 81.999999 0 0 0 319.57812 403.83984 A 81.999999 81.999999 0 0 0 319.45898 403.83984 z M 319.57812 444.83984 A 41.000001 40.033841 0 0 1 360.57812 484.875 A 41.000001 40.033841 0 0 1 319.57812 524.9082 A 41.000001 40.033841 0 0 1 278.57812 484.875 A 41.000001 40.033841 0 0 1 319.57812 444.83984 z "
       style="opacity:1;fill:url(#linearGradient1149);fill-opacity:1;stroke-width:0.999995"
       id="path848" />
    <path
       d="m 106.38058,87.039647 c -6.00975,0 -10.847914,4.838171 -10.847914,10.847917 v 30.380056 h 5.16e-4 a 10.847916,10.592286 0 0 1 0,0.0212 10.847916,10.592286 0 0 1 -10.847916,10.59211 10.847916,10.592286 0 0 1 -10.847917,-10.59211 10.847916,10.592286 0 0 1 10.717694,-10.5916 16.787635,16.392036 0 0 0 -0.03462,0 16.787635,16.392036 0 0 0 -16.623276,16.39124 16.787635,16.392036 0 0 0 16.788122,16.39177 16.787635,16.392036 0 0 0 6.045626,-1.10019 21.695832,21.695832 0 0 0 15.649685,-20.83594 21.695832,21.695832 0 0 0 -0.003,-0.38137 l 0.20826,-0.002 c 0.1027,-13.98782 0.28859,-39.346683 0.30179,-41.108602 -0.168,-0.0076 -0.33699,-0.0124 -0.50695,-0.0124 z"
       style="opacity:1;fill:url(#linearGradient1141);fill-opacity:1;stroke-width:0.2023"
       id="path888" />
    <path
       id="path1114"
       transform="scale(0.26458333)"
       d="m 360.57617,484.79492 v 0.084 l 0.002,-0.004 z"
       style="opacity:1;fill:#fc0303;fill-opacity:0.99;stroke-width:0.99936" />
    <path
       id="path1026"
       d="m 95.402685,128.31072 c 0,0 0,0 0,0 z"
       style="fill:none;stroke:#000000;stroke-width:0.264583px;stroke-linecap:butt;stroke-linejoin:miter;stroke-opacity:1;opacity:1" />
    <path
       style="opacity:1;fill:#fc0303;fill-opacity:0.99;stroke-width:0.264414"
       d="m 138.92381,128.26763 v 0.0222 l 5.3e-4,-0.001 z"
       id="path1169" />
    <path
       style="opacity:1;fill:none;stroke:#000000;stroke-width:0.264583px;stroke-linecap:butt;stroke-linejoin:miter;stroke-opacity:1"
       d="m 138.92405,128.3097 c 0,0 0,0 0,0 z"
       id="path1171" />
    <rect
       ry="7.0111141"
       rx="2.3422182"
       y="87.03965"
       x="106.83999"
       height="12.972854"
       width="27.56834"
       id="rect1177"
       style="opacity:1;fill:#ff2332;fill-opacity:1;stroke-width:0.262406" />
    <rect
       ry="7.0111141"
       rx="2.3812499"
       y="105.8378"
       x="106.70595"
       height="11.90929"
       width="27.93099"
       id="rect1179"
       style="opacity:1;fill:#ff2232;fill-opacity:1;stroke-width:0.264583" />
  </g>
</svg>
